<?xml version="1.0" encoding="UTF-8" standalone="no"?>
<!DOCTYPE svg PUBLIC "-//W3C//DTD SVG 1.1//EN" "http://www.w3.org/Graphics/SVG/1.1/DTD/svg11.dtd">
<svg width="100%" height="100%" viewBox="0 0 244 244" version="1.1" xmlns="http://www.w3.org/2000/svg" xmlns:xlink="http://www.w3.org/1999/xlink" xml:space="preserve" xmlns:serif="http://www.serif.com/" style="fill-rule:evenodd;clip-rule:evenodd;stroke-linejoin:round;stroke-miterlimit:2;">
    <path d="M243.555,39.81C243.555,17.838 225.716,0 203.744,0L39.81,0C17.838,0 0,17.838 0,39.81L0,203.744C0,225.716 17.838,243.555 39.81,243.555L203.744,243.555C225.716,243.555 243.555,225.716 243.555,203.744L243.555,39.81Z" style="fill:rgb(255,249,0);"/>
    <g id="アートボード1" transform="matrix(0.264117,0,0,0.383456,0,0)">
        <rect x="0" y="0" width="922.148" height="635.156" style="fill:none;"/>
        <g id="Bookmark" transform="matrix(16.6605,4.24335e-31,2.05356e-31,11.4754,8.74261,-5293.88)">
            <path d="M14.7,465C10.4,465 6,467.2 2.6,470.8C2.3,471.2 2.1,471.7 2.1,472.1L2.1,510.1C2.1,510.9 3,511.4 3.6,511C8.4,508.1 13.8,505.5 16.9,505.5C20.9,505.5 23.9,508.2 25.9,512.4C26.1,512.8 26.4,513 26.8,513L27.5,513C27.9,513 28.2,512.8 28.4,512.4C30.4,508.2 33.3,505.5 37.4,505.5C40.5,505.5 45.9,508.1 50.7,511C51.4,511.4 52.2,510.9 52.2,510.1L52.2,472.1C52.2,471.6 52,471.1 51.7,470.8C48.3,467.1 43.9,465 39.6,465C34.9,465 30.3,467.6 27.2,472C23.9,467.7 19.4,465 14.7,465ZM14.7,466.5C19.4,466.5 23.9,469.5 26.1,474L26.1,509C23.3,505 19.7,503.8 16.9,503.8C13.2,503.8 9,505.9 4.1,509L4.1,472.5C4.1,472 4.3,471.5 4.7,471.1C7.4,468.4 11,466.5 14.7,466.5ZM50.1,509C45.2,505.9 41,503.8 37.3,503.8C32.9,503.8 30,506.3 28.1,509L28.1,474C29.9,469.9 34.8,466.5 39.5,466.5C43.2,466.5 46.7,468.4 49.5,471.1C49.9,471.5 50.1,472 50.1,472.5L50.1,509Z" style="fill-rule:nonzero;"/>
        </g>
        <g transform="matrix(4.5179,0,0,3.11184,-2884.26,-446.681)">
            <g transform="matrix(96,0,0,96,687.773,260.156)">
                <path d="M0.91,-0.117L0.989,-0.117C1.034,-0.117 1.057,-0.101 1.057,-0.07C1.057,-0.048 1.049,-0.031 1.033,-0.019C1.017,-0.006 0.995,-0 0.966,-0L0.874,-0C0.84,-0 0.814,-0.007 0.795,-0.021C0.777,-0.035 0.768,-0.056 0.768,-0.082C0.768,-0.099 0.774,-0.124 0.788,-0.156L0.914,-0.45L0.819,-0.349C0.797,-0.325 0.776,-0.313 0.755,-0.313C0.729,-0.313 0.712,-0.331 0.704,-0.367L0.69,-0.427L0.571,-0.133C0.53,-0.032 0.499,0.036 0.478,0.073C0.456,0.109 0.428,0.14 0.394,0.167C0.345,0.205 0.288,0.225 0.224,0.225C0.155,0.225 0.1,0.203 0.057,0.16C0.014,0.117 -0.007,0.061 -0.007,-0.009C-0.007,-0.1 0.027,-0.18 0.094,-0.249C0.13,-0.285 0.175,-0.315 0.229,-0.338C0.283,-0.36 0.336,-0.372 0.389,-0.372C0.415,-0.372 0.437,-0.366 0.453,-0.354C0.469,-0.343 0.477,-0.328 0.477,-0.309C0.477,-0.289 0.468,-0.273 0.451,-0.261C0.441,-0.254 0.423,-0.249 0.395,-0.246C0.33,-0.24 0.278,-0.225 0.238,-0.202C0.205,-0.182 0.179,-0.156 0.159,-0.124C0.14,-0.092 0.13,-0.059 0.13,-0.024C0.13,0.013 0.14,0.042 0.159,0.064C0.178,0.085 0.203,0.096 0.236,0.096C0.276,0.096 0.31,0.079 0.339,0.045C0.368,0.011 0.4,-0.048 0.435,-0.133L0.629,-0.61C0.646,-0.652 0.669,-0.673 0.697,-0.673C0.715,-0.673 0.73,-0.667 0.74,-0.656C0.751,-0.644 0.76,-0.624 0.768,-0.594L0.798,-0.482L0.944,-0.626C0.977,-0.658 1.007,-0.673 1.035,-0.673C1.054,-0.673 1.071,-0.667 1.084,-0.656C1.098,-0.644 1.104,-0.629 1.104,-0.612C1.104,-0.602 1.102,-0.59 1.097,-0.577L1.085,-0.55L0.91,-0.117Z" style="fill:rgb(255,79,79);fill-rule:nonzero;"/>
            </g>
        </g>
    </g>
</svg>
